<svg xmlns="http://www.w3.org/2000/svg" width="55.814" height="52.479" viewBox="0 0 55.814 52.479">
    <defs>
        <style>
            .prefix__cls-1{fill:#fff}
        </style>
    </defs>
    <g id="prefix__PizzaHutLogo" transform="translate(.014)">
        <g id="prefix__Group_133" data-name="Group 133" transform="translate(-.014)">
            <path id="prefix__Path_2503" d="M46.144 0a39.732 39.732 0 0 1 4.1.292 23.652 23.652 0 0 1 11.3 4.735 21.859 21.859 0 0 1 5.113 6.173 29.112 29.112 0 0 1 3.289 8.923 27.872 27.872 0 0 1 .36 5.19 34.682 34.682 0 0 1-1.039 9.006 19.9 19.9 0 0 1-5 8.923 44.533 44.533 0 0 1-4.882 4.584 24.631 24.631 0 0 1-4.135 2.71 5.652 5.652 0 0 1-2.2.663.634.634 0 0 1-.486-.125.4.4 0 0 1 .125-.533 6.064 6.064 0 0 1 .794-.627 49.424 49.424 0 0 0 4.3-3.039 22.783 22.783 0 0 0 7.91-11.732 36.29 36.29 0 0 0 .841-3.728 21.706 21.706 0 0 0 .214-2.673 38.279 38.279 0 0 0-.037-5.472 26.693 26.693 0 0 0-1.519-6.683 20.144 20.144 0 0 0-2.313-4.621 16.638 16.638 0 0 0-4.213-4.078 29.216 29.216 0 0 0-7.08-3.832 15.655 15.655 0 0 0-4.4-.877 2.4 2.4 0 0 0-.747.063c-.371.089-.433.345-.2.647a1.068 1.068 0 0 0 .7.407c.8.136 1.608.266 2.417.386a12.776 12.776 0 0 1 3.712 1.253 23.387 23.387 0 0 1 7.341 5.456 15.839 15.839 0 0 1 3.529 6.714 29.567 29.567 0 0 1 .841 5.66c.068 1.274.115 2.553.151 3.827a20.036 20.036 0 0 1-2.167 9.476 27.254 27.254 0 0 1-7.231 9.319 23.71 23.71 0 0 1-5.43 3.274 32.364 32.364 0 0 1-8.693 2.517 26.829 26.829 0 0 1-5.639.245 23.359 23.359 0 0 1-9.962-2.814 20.6 20.6 0 0 1-4.949-4.119 12.514 12.514 0 0 1-2.438-3.707 9.208 9.208 0 0 1-.48-1.665 1.68 1.68 0 0 1 .084-.814.4.4 0 0 1 .7-.188 7.41 7.41 0 0 1 .861.9c.83 1 1.613 2.052 2.475 3.023a20.272 20.272 0 0 0 5.472 4.5 23.553 23.553 0 0 0 6.49 2.339c.679.141 1.363.256 2.052.334a5.113 5.113 0 0 0 1.091-.037c.209-.021.439-.089.412-.371-.021-.251-.235-.324-.449-.355-.266-.042-.538-.057-.8-.11a20.9 20.9 0 0 1-4.929-1.352 29.9 29.9 0 0 1-3.7-2.125 27.24 27.24 0 0 1-5.555-4.976A11.1 11.1 0 0 1 20.6 38.3a14.564 14.564 0 0 1-1.41-3.848 18.489 18.489 0 0 1-.277-2.506c-.068-2.24-.131-4.485-.115-6.725a18.612 18.612 0 0 1 4.375-11.81 20.635 20.635 0 0 1 4.375-4.151 24.516 24.516 0 0 1 3.915-2.05c.919-.412 1.838-.825 2.751-1.248a5.394 5.394 0 0 0 .611-.345c.057-.037.084-.12.125-.178-.068-.047-.136-.125-.2-.125a2.625 2.625 0 0 0-.642.042 21.436 21.436 0 0 0-16.23 16.483 27.243 27.243 0 0 0-.694 5.7 3.952 3.952 0 0 1-.151 1.049c-.125.433-.444.506-.8.23a2.015 2.015 0 0 1-.767-1.488 24.059 24.059 0 0 1 .209-7.268 21.97 21.97 0 0 1 5.231-10.022 26.266 26.266 0 0 1 8.333-6.109A36.94 36.94 0 0 1 38.454.888c1.055-.2 2.109-.428 3.169-.616a23.292 23.292 0 0 1 4.135-.22h.392A.06.06 0 0 1 46.144 0zm7.445 19.365h4.151a1.062 1.062 0 0 0 .82-.386.729.729 0 0 0-.052-1.107 2.712 2.712 0 0 0-.642-.444c-1.216-.569-2.423-1.175-3.67-1.66-1.5-.585-3.044-1.065-4.574-1.582a.413.413 0 0 1-.308-.3c-.146-.553-.3-1.1-.449-1.655-.115-.433-.183-.882-.324-1.31a.654.654 0 0 0-.809-.533 11.031 11.031 0 0 0-1.237.178c-2.527.506-5.049 1.029-7.57 1.54-1.378.277-1.378.277-2.188 1.457-.527.767-1.039 1.54-1.587 2.292a1.469 1.469 0 0 1-.564.465 56.635 56.635 0 0 0-5.675 2.725c-1.128.653-2.214 1.368-3.31 2.068a1.315 1.315 0 0 0-.355.4c-.1.151-.047.277.1.4a1.272 1.272 0 0 0 1.065.188q2.772-.407 5.539-.8c1.744-.245 3.493-.475 5.237-.71 1.352-.183 2.7-.4 4.051-.533q2.788-.266 5.586-.418c2.359-.124 4.724-.197 6.765-.275zM35.6 36.735c.047-.167.068-.287.11-.4.136-.376.3-.741.407-1.128q.313-1.206.564-2.428a.5.5 0 0 0-.162-.423.483.483 0 0 0-.439.068 3.6 3.6 0 0 0-.668.684 20.043 20.043 0 0 0-2.047 3.8.728.728 0 0 1-.287.3 2.364 2.364 0 0 1-.449.131 9.123 9.123 0 0 0-1.352.449c-.585.282-.585.8-.021 1.128a2.69 2.69 0 0 0 .731.251c.381.094.465.193.392.58a4.618 4.618 0 0 1-.141.527 5.153 5.153 0 0 0-.23 2.235c.01.078.026.157.042.23a.714.714 0 0 0 1.159.465 2.1 2.1 0 0 0 .9-1.331c.261-.919.5-1.843.736-2.767.037-.141.073-.251.235-.3.668-.209 1.337-.439 2-.653.1-.031.209-.052.35-.089-.047.313-.094.58-.131.846a3.074 3.074 0 0 0 .031 1.493.742.742 0 0 0 1.107.449 1.462 1.462 0 0 0 .773-.971 15.342 15.342 0 0 0 .418-1.932 2.043 2.043 0 0 1 1.086-1.77.948.948 0 0 0 .345-.345 1.287 1.287 0 0 0 .089-.407 1.22 1.22 0 0 0-.386-.021c-.658.172-.653.178-.512-.5.172-.814.355-1.629.517-2.443.063-.308-.167-.512-.449-.376a1.95 1.95 0 0 0-.627.486 3.161 3.161 0 0 0-.47.747c-.365.778-.72 1.561-1.049 2.349a.978.978 0 0 1-.747.679c-.381.073-.757.193-1.138.277-.209.063-.423.075-.687.11zm11.465-11.69l.047.078c-.12.1-.235.209-.355.318-.924.83-1.859 1.65-2.757 2.506a2.381 2.381 0 0 0-.506.861c-.146.371.042.616.439.621.287.005.569-.037.856-.052 1.013-.052 2.031-.084 3.044-.162a4.057 4.057 0 0 0 2.1-.694 1.36 1.36 0 0 1 .825-.261c.115 0 .225 0 .339-.01a5.111 5.111 0 0 0 2.355-.976.752.752 0 0 1 .841-.089 2.369 2.369 0 0 0 2.391-.3c.23-.146.256-.318.042-.48a1.928 1.928 0 0 0-.689-.318c-.449-.1-.653-.4-.517-.825a5.754 5.754 0 0 0 .209-.642 5.389 5.389 0 0 0 .136-1 .408.408 0 0 0-.486-.418c-.2.01-.4.047-.6.052a5.837 5.837 0 0 0-4.286 2 2.391 2.391 0 0 0-.8 2.177c.005.031 0 .068.005.1.031.188-.031.3-.235.308-.7.01-1.4.021-2.1.021a5.348 5.348 0 0 1-.642-.078c.1-.136.172-.24.251-.329.627-.674 1.263-1.342 1.89-2.015a6.249 6.249 0 0 0 .694-.841.769.769 0 0 0-.553-1.248 8.169 8.169 0 0 0-1.556.037c-.846.078-1.686.188-2.532.292a2.7 2.7 0 0 0-.611.125.542.542 0 0 0-.266.82 1.071 1.071 0 0 0 .752.517 4.863 4.863 0 0 0 .955.031c.446-.022.885-.084 1.323-.126zM29.2 29.942a1.77 1.77 0 0 1 .219.1 1.236 1.236 0 0 0 1.117.157 7.667 7.667 0 0 0 2.428-1.049 3.637 3.637 0 0 0 1.744-2.845 2.413 2.413 0 0 0-1.018-2.261 3.7 3.7 0 0 0-1.9-.71 5.03 5.03 0 0 0-2.819.559 2.19 2.19 0 0 0-.893.851.6.6 0 0 0 .047.663c.125.2.324.2.533.178.131-.016.266-.016.444-.021-.12.209-.209.376-.308.538A24.322 24.322 0 0 0 26 32.918a15.712 15.712 0 0 0-.3 2.161.621.621 0 0 0 .428.72c.334.1.5-.151.647-.365a4.057 4.057 0 0 0 .412-.694c.439-.992.872-1.984 1.29-2.986.25-.585.48-1.185.723-1.812zm11.262-.219c.11-.12.167-.188.225-.245.627-.653 1.279-1.279 1.869-1.963a11.627 11.627 0 0 0 1.149-1.6.646.646 0 0 0-.355-.982 1.083 1.083 0 0 0-.486-.052c-.992.089-1.989.188-2.981.3a8.052 8.052 0 0 0-1.18.188.521.521 0 0 0-.235.95.831.831 0 0 0 .475.24c.6.026 1.2.016 1.791.005a1.959 1.959 0 0 0 .412-.094c.01.021.026.042.037.063-.12.136-.23.277-.355.4-.783.752-1.582 1.493-2.349 2.255a16.04 16.04 0 0 0-1.123 1.263 1.1 1.1 0 0 0-.235.955.42.42 0 0 0 .4.381 2.778 2.778 0 0 0 .752-.031 22.36 22.36 0 0 1 4.6-.5c.955-.031 1.906-.1 2.856-.2a3.759 3.759 0 0 0 2-.8c.157-.131.365-.287.245-.517-.11-.2-.35-.167-.543-.11a7.435 7.435 0 0 1-2.094.183c-1.31-.026-2.626-.042-3.937-.063-.284-.031-.571-.026-.936-.026zm11.324 2.323a.894.894 0 0 0-.057-.073c.042-.131.084-.261.12-.386.078-.266.172-.527.235-.8a.535.535 0 0 0-.209-.6c-.219-.146-.423-.031-.6.115a2.082 2.082 0 0 0-.386.386c-.392.564-.767 1.138-1.159 1.7a.473.473 0 0 1-.3.172c-.459.031-.919.026-1.378.047a.606.606 0 0 0-.559.439.533.533 0 0 0 .157.59 1.065 1.065 0 0 0 .773.381c.3.021.355.089.334.4a1.622 1.622 0 0 1-.037.23 17.873 17.873 0 0 0-.564 3.279 2.386 2.386 0 0 0 .193 1.321c.146.256.318.271.47.021a4.993 4.993 0 0 0 .407-.841c.5-1.378 1-2.757 1.478-4.14a1.127 1.127 0 0 1 .8-.814 1.227 1.227 0 0 0 .193-.073c1.044-.428 2.088-.856 3.127-1.295a2.307 2.307 0 0 0 .548-.345c.146-.12.1-.251-.089-.292a.564.564 0 0 0-.209-.01c-.674.11-1.352.219-2.026.339-.42.067-.837.161-1.26.249zm-8.56 4.684a.546.546 0 0 1-.057-.042 1.859 1.859 0 0 1 .052-.245 2.757 2.757 0 0 0 .026-1.592.9.9 0 0 0-.924-.726 1.45 1.45 0 0 0-.559.1c-.146.057-.334.178-.371.3-.026.1.125.287.245.381a.312.312 0 0 1 .12.433 5.459 5.459 0 0 0-.512 2.318.955.955 0 0 0 1.018 1 2.359 2.359 0 0 0 1.483-.559c.355-.277.668-.6 1-.908.136-.125.277-.251.433-.392a4.45 4.45 0 0 0 .313.559 5.834 5.834 0 0 0 .762.841.691.691 0 0 0 .569.11c.094-.026.131-.324.141-.5.052-.9.089-1.8.136-2.7.021-.423.089-.846.089-1.274 0-.157-.089-.418-.193-.454a1.045 1.045 0 0 0-.58.078c-.084.026-.151.141-.214.219-.094.125-.178.256-.261.386a8.666 8.666 0 0 1-2.381 2.454c-.116.083-.226.145-.335.213zm-8.87-6.458c.016.225.026.449.057.674a1.048 1.048 0 0 0 .8.861.526.526 0 0 0 .627-.334c.214-.574.433-1.149.658-1.718.329-.83.684-1.65.982-2.49a2.289 2.289 0 0 0 .037-1.582c-.146-.4-.418-.449-.7-.136a1.266 1.266 0 0 0-.131.162c-.632.966-1.269 1.927-1.89 2.9a2.752 2.752 0 0 0-.441 1.662zm2.172-6.338a2.607 2.607 0 0 0 .3.553c.292.324.585.318.982-.005a9.364 9.364 0 0 0 2-2.668.235.235 0 0 0 .037-.094c-.005-.146.031-.345-.047-.428a.488.488 0 0 0-.423-.052 4.757 4.757 0 0 0-2.433 1.78 6.13 6.13 0 0 0-.417.913z" class="prefix__cls-1" data-name="Path 2503" transform="translate(-14.494)"/>
            <path id="prefix__Path_2504" d="M-.013 599.593a2.087 2.087 0 0 1 .548-1.629.785.785 0 0 1 .71-.235 1.548 1.548 0 0 1 1.54 1.561c.151 1.107.261 2.219.365 3.336.063.668-.36 1-1.013.825a2.382 2.382 0 0 1-1.765-1.639 7.827 7.827 0 0 1-.385-2.219z" class="prefix__cls-1" data-name="Path 2504" transform="translate(.014 -566.513)"/>
            <path id="prefix__Path_2505" d="M934.27 894.511c-.11-.3-.224-.6-.334-.893a.263.263 0 0 1-.068.01v.835h-.068V893.3c.1.094.188.146.219.219.1.256.188.522.287.8.245-.3.183-.741.475-.987.021.01.042.026.063.036v1.086h-.068v-.8a.423.423 0 0 1-.078-.021c-.11.287-.219.574-.334.862a.2.2 0 0 1-.094.016z" class="prefix__cls-1" data-name="Path 2505" transform="translate(-885.046 -846.661)"/>
            <path id="prefix__Path_2506" d="M912.1 896.186v-.971c-.157-.021-.277-.036-.4-.057v-.058h.882c.005.016.005.031.01.047-.11.021-.224.047-.381.078v.971a.775.775 0 0 0-.111-.01z" class="prefix__cls-1" data-name="Path 2506" transform="translate(-864.1 -848.367)"/>
            <path id="prefix__Path_2507" d="M713.5 475.942a2.935 2.935 0 0 1 2.156-1.681c-.089.24-.172.486-.277.72a.586.586 0 0 1-.23.271c-.465.235-.935.454-1.4.674a.9.9 0 0 1-.249.016z" class="prefix__cls-1" data-name="Path 2507" transform="translate(-676.248 -449.498)"/>
            <path id="prefix__Path_2508" d="M285.5 489.055c.042-.188.068-.35.115-.5.318-1.044.642-2.083.955-3.133a2.932 2.932 0 0 0 .078-.564c.016-.157.089-.224.235-.193a7.262 7.262 0 0 1 1.258.308 1.326 1.326 0 0 1 .574 1.9 4.286 4.286 0 0 1-1.686 1.514c-.433.235-.893.423-1.342.632a.857.857 0 0 1-.187.036z" class="prefix__cls-1" data-name="Path 2508" transform="translate(-270.593 -459.353)"/>
        </g>
    </g>
</svg>
