<svg xmlns="http://www.w3.org/2000/svg" width="238" height="238" viewBox="0 0 238 238">
    <g fill="none" fill-rule="evenodd">
        <g>
            <g>
                <g>
                    <g transform="translate(-1092 -192) translate(1062 162) translate(30 30)">
                        <circle cx="119" cy="119" r="119" fill="#FCF8F2"/>
                        <g>
                            <path fill="#CF9955" d="M60.927 2.327c-4.102 0-7.918 1.874-11.103 5.414-6.693 7.453-9.893 21.045-8.342 35.46 2.319 21.652 10.855 39.328 19.037 39.408 8.177 0 16.897-17.585 19.436-39.208 1.7-14.436-1.37-28.074-8.014-35.584-3.157-3.568-6.964-5.465-11.014-5.49zm-.408 82.61h-.009c-9.49-.088-18.86-18.311-21.34-41.485-1.619-15.054 1.802-29.338 8.924-37.263C51.73 2.142 56.145 0 60.862 0c4.809.026 9.215 2.195 12.82 6.277 7.07 7.991 10.359 22.323 8.584 37.394-2.718 23.14-12.271 41.267-21.747 41.267z" transform="translate(62 36)"/>
                            <path fill="#E5B982" d="M96.801 40.594L105.334 40.594 112.752 157.142 99.011 158.472 96.801 40.594" transform="translate(62 36)"/>
                            <path fill="#CF9955" d="M80.312 40.594L96.801 40.594 99.011 158.472 86.711 166.59 80.312 40.594" transform="translate(62 36)"/>
                            <path fill="#EBC596" d="M86.711 166.59L112.752 157.142 98.407 144.66 86.711 166.59M3.526 40.594L.923 126.96 86.711 40.594 3.526 40.594" transform="translate(62 36)"/>
                            <path fill="#E5B982" d="M0.923 126.96L0 157.555 86.711 166.59 86.711 40.594 0.923 126.96" transform="translate(62 36)"/>
                            <path fill="#CF9955" d="M29.194 52.937c0 1.713-1.387 3.104-3.102 3.104-1.714 0-3.104-1.39-3.104-3.104 0-1.714 1.39-3.1 3.104-3.1 1.715 0 3.102 1.386 3.102 3.1M66.962 52.937c0 1.713-1.39 3.104-3.105 3.104-1.712 0-3.1-1.39-3.1-3.104 0-1.714 1.388-3.1 3.1-3.1 1.715 0 3.105 1.386 3.105 3.1" transform="translate(62 36)"/>
                            <path fill="#E5B982" d="M64.853 53.624s-.47.393-1.25.201c-1.016-.25-1.022-.692-1.022-.692.673-3.153 1.212-6.427 1.602-9.732 1.7-14.436-1.368-28.074-8.016-35.584-3.155-3.568-6.963-5.465-11.01-5.49h-.063c-4.025 0-7.831 1.86-11.005 5.374-6.721 7.447-9.931 21.05-8.378 35.5.353 3.294.856 6.557 1.493 9.698 0 0-.154.43-.747.651-.985.362-1.534-.19-1.534-.19-.654-3.211-1.167-6.542-1.525-9.908-1.622-15.092 1.81-29.387 8.962-37.307C35.99 2.125 40.392 0 45.094 0h.073c4.73.026 9.138 2.195 12.745 6.277 7.069 7.991 10.357 22.323 8.58 37.394-.394 3.379-.947 6.727-1.64 9.953" transform="translate(62 36)"/>
                        </g>
                        <g fill-rule="nonzero">
                            <path fill="#DA1A32" d="M37.673 14.324S36.424 3.9 27.468 1.084C22.476-.501 19.98-.03 16.928.51c-3.592.624-7.908 2.16-10.996 4.807C3.45 7.376 1.674 10.16.853 13.278c-.439 1.836-.49 3.743-.152 5.6.119.708 1.13 1.366 1.13.22C1.95 6.278 12.511 3.883 12.88 3.815c.135-.033.27-.05.388-.084.166-.04.336-.058.506-.05.059.008.105.054.113.113.007.06-.025.116-.08.14-.843.404-4.132 1.518-5.92 3.086-2.616 2.18-4.362 5.226-4.921 8.584-.208 2.472-.168 4.958.118 7.422.323 1.672 1.007 3.254 2.003 4.635 1.91 2.29 4.347 4.085 7.101 5.229 1.08.304 2.179.54 3.289.708.104.017.178.112.169.217-.009.106-.097.187-.203.187-1.164.186-3.947-.455-6.257-1.585-1.565-.822-2.956-1.939-4.099-3.288-1.282-1.383-1.973-2.834-2.445-2.75-.793.17-.119 1.838.235 2.48 1.163 1.967 2.798 3.613 4.757 4.79 2.803 1.492 5.973 2.16 9.14 1.923 7.268-.607 11.74-4.115 13.73-6.848 1.164-1.602 3.761-4.976 3.694-9.917-.017-.793.068-6.257-1.737-9.108-.404-.641-1.638-3.306-6.257-5.583-1-.534-2.092-.876-3.219-1.01-.54-.016-1.638-.067-1.534-.707.067-.455 2.766.152 3.052.22 2.222.755 4.298 1.884 6.14 3.338 5.343 4.082 4.806 12.734 4.806 12.734-.236 9.19-5.6 13.089-9.475 15.4-.068.05-.356.404-.27.54.086.134.27.117.455.1 1.484-.151 2.935-1.248 4.166-2.226 6.375-4.993 6.697-8.906 7.066-10.373.47-2.576.566-5.206.285-7.81M2.068 23.112c.009.481.06.96.152 1.433.03.175-.034.353-.17.467-.135.115-.32.149-.488.09-.312-.053-.607-.18-.86-.371-.242-.218-.408-.508-.472-.827-.203-.708-.624-2.8.674-2.783.283.005.55.135.726.357.296.494.448 1.062.439 1.638" transform="translate(86 112)"/>
                            <path fill="#FFF" d="M27.94 16.803c-.185-.068-.356-.135-.489-.185-.49-.202-1.686-.506-2.648-.759-.54-.135-1.08-.285-1.198-.32-.187-.54-.34-1.093-.455-1.653-.032-.183-.077-.364-.134-.54-.084-.304-.203-.473-.49-.44h-.017c-.101.018-1.535.372-3.862.979-1.567.405-3.188.81-3.289.826-.134.017-.202.084-1.23 1.687-.304.472-.693 1.079-.743 1.147-.034.017-.253.118-.49.236-.64.303-1.852.86-2.884 1.45-1.24.677-2.413 1.468-3.508 2.361-.067.096-.067.225 0 .32.118.135.297.2.473.17.047-.002.093-.013.134-.034.22-.05 7.185-1.45 11.166-2.108.997-.169 2.26-.32 3.744-.49 3.66-.388 7.338-.59 7.556-.57.223.018.441-.07.591-.235.117-.137.183-.31.185-.49-.033-.37-.793-.725-2.411-1.35" transform="translate(86 112)"/>
                        </g>
                    </g>
                </g>
            </g>
        </g>
    </g>
</svg>
